<svg viewBox="0 0 19 10" fill="none" xmlns="http://www.w3.org/2000/svg">
<path fill-rule="evenodd" clip-rule="evenodd" d="M5.70679 0.292787C5.89426 0.480314 5.99957 0.734622 5.99957 0.999786C5.99957 1.26495 5.89426 1.51926 5.70679 1.70679L2.41379 4.99979L5.70679 8.29279C5.88894 8.48139 5.98974 8.73399 5.98746 8.99619C5.98518 9.25838 5.88001 9.5092 5.6946 9.6946C5.5092 9.88001 5.25838 9.98518 4.99619 9.98746C4.73399 9.98974 4.48139 9.88894 4.29279 9.70679L0.292787 5.70679C0.105316 5.51926 0 5.26495 0 4.99979C0 4.73462 0.105316 4.48031 0.292787 4.29279L4.29279 0.292787C4.48031 0.105316 4.73462 0 4.99979 0C5.26495 0 5.51926 0.105316 5.70679 0.292787V0.292787Z" fill="white"/>
<path fill-rule="evenodd" clip-rule="evenodd" d="M13.2928 9.69471C13.1053 9.50718 13 9.25288 13 8.98771C13 8.72255 13.1053 8.46824 13.2928 8.28071L16.5858 4.98771L13.2928 1.69471C13.1106 1.50611 13.0098 1.25351 13.0121 0.991311C13.0144 0.729114 13.1196 0.478302 13.305 0.292894C13.4904 0.107485 13.7412 0.00231622 14.0034 3.78025e-05C14.2656 -0.00224062 14.5182 0.0985542 14.7068 0.280712L18.7068 4.28071C18.8943 4.46824 18.9996 4.72255 18.9996 4.98771C18.9996 5.25288 18.8943 5.50718 18.7068 5.69471L14.7068 9.69471C14.5193 9.88218 14.265 9.9875 13.9998 9.9875C13.7346 9.9875 13.4803 9.88218 13.2928 9.69471Z" fill="white"/>
</svg>
