<svg viewBox="0 0 55 44" fill="none" xmlns="http://www.w3.org/2000/svg">
  <path d="M3.56 43.4937C1.32 37.0937 0.2 30.747 0.2 24.4537C0.2 17.2003 2.12 11.387 5.96 7.01367C9.8 2.53366 15.4 0.293661 22.76 0.293661V10.3737C17.1067 10.3737 14.28 14.0003 14.28 21.2537V23.6537H24.52V43.4937H3.56ZM33.8 43.4937C31.6667 36.987 30.6 30.6403 30.6 24.4537C30.6 17.2003 32.4667 11.387 36.2 7.01367C40.04 2.53366 45.64 0.293661 53 0.293661V10.3737C47.4533 10.3737 44.68 14.0003 44.68 21.2537V23.6537H54.76V43.4937H33.8Z" fill="#FFC322"/>
</svg>
